ffmpeg started on 2025-06-06 at 15:33:52
Report written to "D:\Convert\FFMetrics\reports\ssim_report-6.txt"
Log level: 32
Command line:
ffmpeg -hide_banner -nostdin -i "G:\\\xc0\xed\xe8\xec\xe5\\\xce\xed\xe3\xee\xe8\xed\xe3\xe8\\!_36_\xce\xf1\xe5\xed\xfc_2024\\DreamCast\\\xcd\xe8\xed\xe0 \xe2 \xea\xee\xf0\xee\xeb\xe5\xe2\xf1\xf2\xe2\xe5 \xe7\xe2\xb8\xe7\xe4\\[DC] Hoshi Furu Oukoku no Nina - 11_Telegram_HEVC.mkv" -i "G:\\\xc0\xed\xe8\xec\xe5\\\xce\xed\xe3\xee\xe8\xed\xe3\xe8\\!_36_\xce\xf1\xe5\xed\xfc_2024\\DreamCast\\\xcd\xe8\xed\xe0 \xe2 \xea\xee\xf0\xee\xeb\xe5\xe2\xf1\xf2\xe2\xe5 \xe7\xe2\xb8\xe7\xe4\\[DC] Hoshi Furu Oukoku no Nina - 11_Telegram.mp4" -lavfi "[0:v]settb=AVTB,setpts=PTS-STARTPTS,format=pix_fmts=yuv420p10,fps=24000/1001,scale=1920:1080:flags=bicubic[main];[1:v]settb=AVTB,setpts=PTS-STARTPTS,format=pix_fmts=yuv420p,fps=24000/1001,scale=1920:1080:flags=bicubic[ref];[main][ref]ssim=eof_action=endall:stats_file='D\\:/Convert/FFMetrics/logs/ssim_logfile-6.txt'" -f null -
Input #0, matroska,webm, from 'G:\Аниме\Онгоинги\!_36_Осень_2024\DreamCast\Нина в королевстве звёзд\[DC] Hoshi Furu Oukoku no Nina - 11_Telegram_HEVC.mkv':
  Metadata:
    COMPATIBLE_BRANDS: isomiso2avc1mp41
    MAJOR_BRAND     : isom
    MINOR_VERSION   : 512
    ENCODER         : Lavf61.7.100
  Duration: 00:23:46.69, start: -0.021000, bitrate: 837 kb/s
  Stream #0:0: Video: hevc (Main 10), yuv420p10le(tv, bt709, progressive), 1920x1080 [SAR 1:1 DAR 16:9], 23.98 fps, 23.98 tbr, 1k tbn (default)
      Metadata:
        HANDLER_NAME    : VideoHandler
        VENDOR_ID       : [0][0][0][0]
        ENCODER         : Lavc61.19.100 libx265
        BPS             : 639637
        DURATION        : 00:23:46.591708333
        NUMBER_OF_FRAMES: 34204
        NUMBER_OF_BYTES : 114062650
        _STATISTICS_WRITING_APP: mkvpropedit v66.0.0 ('Josie') 64-bit
        _STATISTICS_WRITING_DATE_UTC: 2025-06-01 13:37:21
        _STATISTICS_TAGS: BPS DURATION NUMBER_OF_FRAMES NUMBER_OF_BYTES
  Stream #0:1: Audio: aac (LC), 48000 Hz, stereo, fltp (default)
      Metadata:
        HANDLER_NAME    : SoundHandler
        VENDOR_ID       : [0][0][0][0]
        ENCODER         : Lavc61.19.100 aac
        BPS             : 193778
        DURATION        : 00:23:46.688000000
        NUMBER_OF_FRAMES: 66877
        NUMBER_OF_BYTES : 34557679
        _STATISTICS_WRITING_APP: mkvpropedit v66.0.0 ('Josie') 64-bit
        _STATISTICS_WRITING_DATE_UTC: 2025-06-01 13:37:21
        _STATISTICS_TAGS: BPS DURATION NUMBER_OF_FRAMES NUMBER_OF_BYTES
Input #1, mov,mp4,m4a,3gp,3g2,mj2, from 'G:\Аниме\Онгоинги\!_36_Осень_2024\DreamCast\Нина в королевстве звёзд\[DC] Hoshi Furu Oukoku no Nina - 11_Telegram.mp4':
  Metadata:
    major_brand     : isom
    minor_version   : 512
    compatible_brands: isomiso2avc1mp41
    encoder         : Lavf61.1.100
  Duration: 00:23:46.66, start: 0.000000, bitrate: 3826 kb/s
  Stream #1:0[0x1](und): Video: h264 (High) (avc1 / 0x31637661), yuv420p(tv, bt709, progressive), 1920x1080 [SAR 1:1 DAR 16:9], 3678 kb/s, 23.98 fps, 23.98 tbr, 24k tbn (default)
      Metadata:
        handler_name    : VideoHandler
        vendor_id       : [0][0][0][0]
        encoder         : Lavc61.3.100 h264_qsv
  Stream #1:1[0x2](und): Audio: aac (HE-AACv2) (mp4a / 0x6134706D), 48000 Hz, stereo, fltp, 144 kb/s (default)
      Metadata:
        handler_name    : SoundHandler
        vendor_id       : [0][0][0][0]
Stream mapping:
  Stream #0:0 (hevc) -> settb:default
  Stream #1:0 (h264) -> settb:default
  ssim:default -> Stream #0:0 (wrapped_avframe)
  Stream #0:1 -> #0:1 (aac (native) -> pcm_s16le (native))
Output #0, null, to 'pipe:':
  Metadata:
    COMPATIBLE_BRANDS: isomiso2avc1mp41
    MAJOR_BRAND     : isom
    MINOR_VERSION   : 512
    encoder         : Lavf61.7.100
  Stream #0:0: Video: wrapped_avframe, yuv420p10le(tv, bt709, progressive), 1920x1080 [SAR 1:1 DAR 16:9], q=2-31, 200 kb/s, 23.98 fps, 23.98 tbn
      Metadata:
        encoder         : Lavc61.19.100 wrapped_avframe
  Stream #0:1: Audio: pcm_s16le, 48000 Hz, stereo, s16, 1536 kb/s (default)
      Metadata:
        HANDLER_NAME    : SoundHandler
        VENDOR_ID       : [0][0][0][0]
        _STATISTICS_TAGS: BPS DURATION NUMBER_OF_FRAMES NUMBER_OF_BYTES
        BPS             : 193778
        DURATION        : 00:23:46.688000000
        NUMBER_OF_FRAMES: 66877
        NUMBER_OF_BYTES : 34557679
        _STATISTICS_WRITING_APP: mkvpropedit v66.0.0 ('Josie') 64-bit
        _STATISTICS_WRITING_DATE_UTC: 2025-06-01 13:37:21
        encoder         : Lavc61.19.100 pcm_s16le
frame=  163 fps=0.0 q=-0.0 size=N/A time=00:00:06.79 bitrate=N/A speed=13.3x    frame=  383 fps=369 q=-0.0 size=N/A time=00:00:15.97 bitrate=N/A speed=15.4x    frame=  614 fps=397 q=-0.0 size=N/A time=00:00:25.60 bitrate=N/A speed=16.6x    frame=  849 fps=410 q=-0.0 size=N/A time=00:00:35.41 bitrate=N/A speed=17.1x    frame= 1092 fps=423 q=-0.0 size=N/A time=00:00:45.54 bitrate=N/A speed=17.7x    frame= 1319 fps=427 q=-0.0 size=N/A time=00:00:55.01 bitrate=N/A speed=17.8x    frame= 1484 fps=412 q=-0.0 size=N/A time=00:01:01.89 bitrate=N/A speed=17.2x    frame= 1686 fps=409 q=-0.0 size=N/A time=00:01:10.32 bitrate=N/A speed=17.1x    frame= 1868 fps=402 q=-0.0 size=N/A time=00:01:17.91 bitrate=N/A speed=16.8x    frame= 2070 fps=402 q=-0.0 size=N/A time=00:01:26.33 bitrate=N/A speed=16.7x    frame= 2245 fps=396 q=-0.0 size=N/A time=00:01:33.63 bitrate=N/A speed=16.5x    frame= 2429 fps=392 q=-0.0 size=N/A time=00:01:41.30 bitrate=N/A speed=16.4x    frame= 2604 fps=389 q=-0.0 size=N/A time=00:01:48.60 bitrate=N/A speed=16.2x    frame= 2809 fps=389 q=-0.0 size=N/A time=00:01:57.15 bitrate=N/A speed=16.2x    frame= 3024 fps=391 q=-0.0 size=N/A time=00:02:06.12 bitrate=N/A speed=16.3x    frame= 3261 fps=395 q=-0.0 size=N/A time=00:02:16.01 bitrate=N/A speed=16.5x    frame= 3493 fps=398 q=-0.0 size=N/A time=00:02:25.68 bitrate=N/A speed=16.6x    frame= 3764 fps=405 q=-0.0 size=N/A time=00:02:36.99 bitrate=N/A speed=16.9x    frame= 4044 fps=412 q=-0.0 size=N/A time=00:02:48.66 bitrate=N/A speed=17.2x    frame= 4295 fps=416 q=-0.0 size=N/A time=00:02:59.13 bitrate=N/A speed=17.4x    frame= 4538 fps=418 q=-0.0 size=N/A time=00:03:09.27 bitrate=N/A speed=17.5x    frame= 4803 fps=423 q=-0.0 size=N/A time=00:03:20.32 bitrate=N/A speed=17.6x    frame= 5063 fps=426 q=-0.0 size=N/A time=00:03:31.16 bitrate=N/A speed=17.8x    frame= 5304 fps=428 q=-0.0 size=N/A time=00:03:41.22 bitrate=N/A speed=17.8x    frame= 5540 fps=429 q=-0.0 size=N/A time=00:03:51.06 bitrate=N/A speed=17.9x    frame= 5782 fps=431 q=-0.0 size=N/A time=00:04:01.15 bitrate=N/A speed=  18x    frame= 6013 fps=432 q=-0.0 size=N/A time=00:04:10.79 bitrate=N/A speed=  18x    frame= 6246 fps=432 q=-0.0 size=N/A time=00:04:20.51 bitrate=N/A speed=  18x    frame= 6499 fps=434 q=-0.0 size=N/A time=00:04:31.06 bitrate=N/A speed=18.1x    frame= 6741 fps=435 q=-0.0 size=N/A time=00:04:41.15 bitrate=N/A speed=18.2x    frame= 6997 fps=437 q=-0.0 size=N/A time=00:04:51.83 bitrate=N/A speed=18.2x    frame= 7258 fps=439 q=-0.0 size=N/A time=00:05:02.71 bitrate=N/A speed=18.3x    frame= 7506 fps=441 q=-0.0 size=N/A time=00:05:13.06 bitrate=N/A speed=18.4x    frame= 7746 fps=442 q=-0.0 size=N/A time=00:05:23.07 bitrate=N/A speed=18.4x    frame= 7973 fps=441 q=-0.0 size=N/A time=00:05:32.54 bitrate=N/A speed=18.4x    frame= 8215 fps=442 q=-0.0 size=N/A time=00:05:42.63 bitrate=N/A speed=18.4x    frame= 8457 fps=443 q=-0.0 size=N/A time=00:05:52.72 bitrate=N/A speed=18.5x    frame= 8728 fps=445 q=-0.0 size=N/A time=00:06:04.03 bitrate=N/A speed=18.6x    frame= 9006 fps=447 q=-0.0 size=N/A time=00:06:15.62 bitrate=N/A speed=18.7x    frame= 9242 fps=448 q=-0.0 size=N/A time=00:06:25.46 bitrate=N/A speed=18.7x    frame= 9515 fps=450 q=-0.0 size=N/A time=00:06:36.85 bitrate=N/A speed=18.8x    frame= 9750 fps=450 q=-0.0 size=N/A time=00:06:46.65 bitrate=N/A speed=18.8x    frame= 9970 fps=449 q=-0.0 size=N/A time=00:06:55.83 bitrate=N/A speed=18.7x    frame=10193 fps=449 q=-0.0 size=N/A time=00:07:05.13 bitrate=N/A speed=18.7x    frame=10439 fps=449 q=-0.0 size=N/A time=00:07:15.39 bitrate=N/A speed=18.7x    frame=10702 fps=451 q=-0.0 size=N/A time=00:07:26.36 bitrate=N/A speed=18.8x    frame=10965 fps=452 q=-0.0 size=N/A time=00:07:37.33 bitrate=N/A speed=18.8x    frame=11229 fps=453 q=-0.0 size=N/A time=00:07:48.34 bitrate=N/A speed=18.9x    frame=11493 fps=454 q=-0.0 size=N/A time=00:07:59.35 bitrate=N/A speed=  19x    frame=11774 fps=456 q=-0.0 size=N/A time=00:08:11.07 bitrate=N/A speed=  19x    frame=12025 fps=457 q=-0.0 size=N/A time=00:08:21.54 bitrate=N/A speed=19.1x    frame=12283 fps=458 q=-0.0 size=N/A time=00:08:32.30 bitrate=N/A speed=19.1x    frame=12519 fps=458 q=-0.0 size=N/A time=00:08:42.14 bitrate=N/A speed=19.1x    frame=12760 fps=458 q=-0.0 size=N/A time=00:08:52.19 bitrate=N/A speed=19.1x    frame=13009 fps=458 q=-0.0 size=N/A time=00:09:02.58 bitrate=N/A speed=19.1x    frame=13260 fps=459 q=-0.0 size=N/A time=00:09:13.05 bitrate=N/A speed=19.1x    frame=13513 fps=459 q=-0.0 size=N/A time=00:09:23.60 bitrate=N/A speed=19.2x    frame=13732 fps=459 q=-0.0 size=N/A time=00:09:32.73 bitrate=N/A speed=19.1x    frame=13938 fps=458 q=-0.0 size=N/A time=00:09:41.33 bitrate=N/A speed=19.1x    frame=14170 fps=458 q=-0.0 size=N/A time=00:09:51.00 bitrate=N/A speed=19.1x    frame=14399 fps=457 q=-0.0 size=N/A time=00:10:00.55 bitrate=N/A speed=19.1x    frame=14649 fps=458 q=-0.0 size=N/A time=00:10:10.98 bitrate=N/A speed=19.1x    frame=14881 fps=458 q=-0.0 size=N/A time=00:10:20.66 bitrate=N/A speed=19.1x    frame=15124 fps=458 q=-0.0 size=N/A time=00:10:30.79 bitrate=N/A speed=19.1x    frame=15345 fps=457 q=-0.0 size=N/A time=00:10:40.01 bitrate=N/A speed=19.1x    frame=15592 fps=458 q=-0.0 size=N/A time=00:10:50.31 bitrate=N/A speed=19.1x    frame=15821 fps=457 q=-0.0 size=N/A time=00:10:59.86 bitrate=N/A speed=19.1x    frame=16067 fps=458 q=-0.0 size=N/A time=00:11:10.12 bitrate=N/A speed=19.1x    frame=16313 fps=458 q=-0.0 size=N/A time=00:11:20.38 bitrate=N/A speed=19.1x    frame=16574 fps=459 q=-0.0 size=N/A time=00:11:31.27 bitrate=N/A speed=19.1x    frame=16821 fps=459 q=-0.0 size=N/A time=00:11:41.57 bitrate=N/A speed=19.1x    frame=17033 fps=458 q=-0.0 size=N/A time=00:11:50.41 bitrate=N/A speed=19.1x    frame=17276 fps=459 q=-0.0 size=N/A time=00:12:00.55 bitrate=N/A speed=19.1x    frame=17531 fps=459 q=-0.0 size=N/A time=00:12:11.18 bitrate=N/A speed=19.1x    frame=17747 fps=458 q=-0.0 size=N/A time=00:12:20.19 bitrate=N/A speed=19.1x    frame=17975 fps=458 q=-0.0 size=N/A time=00:12:29.70 bitrate=N/A speed=19.1x    frame=18246 fps=459 q=-0.0 size=N/A time=00:12:41.01 bitrate=N/A speed=19.1x    frame=18497 fps=460 q=-0.0 size=N/A time=00:12:51.47 bitrate=N/A speed=19.2x    frame=18724 fps=459 q=-0.0 size=N/A time=00:13:00.94 bitrate=N/A speed=19.2x    frame=18988 fps=460 q=-0.0 size=N/A time=00:13:11.95 bitrate=N/A speed=19.2x    frame=19228 fps=460 q=-0.0 size=N/A time=00:13:21.96 bitrate=N/A speed=19.2x    frame=19473 fps=460 q=-0.0 size=N/A time=00:13:32.18 bitrate=N/A speed=19.2x    frame=19745 fps=461 q=-0.0 size=N/A time=00:13:43.53 bitrate=N/A speed=19.2x    frame=20005 fps=461 q=-0.0 size=N/A time=00:13:54.37 bitrate=N/A speed=19.2x    frame=20260 fps=462 q=-0.0 size=N/A time=00:14:05.01 bitrate=N/A speed=19.3x    frame=20515 fps=462 q=-0.0 size=N/A time=00:14:15.64 bitrate=N/A speed=19.3x    frame=20793 fps=463 q=-0.0 size=N/A time=00:14:27.24 bitrate=N/A speed=19.3x    frame=21057 fps=464 q=-0.0 size=N/A time=00:14:38.25 bitrate=N/A speed=19.3x    frame=21304 fps=464 q=-0.0 size=N/A time=00:14:48.55 bitrate=N/A speed=19.4x    frame=21570 fps=464 q=-0.0 size=N/A time=00:14:59.64 bitrate=N/A speed=19.4x    frame=21811 fps=465 q=-0.0 size=N/A time=00:15:09.70 bitrate=N/A speed=19.4x    frame=22072 fps=465 q=-0.0 size=N/A time=00:15:20.58 bitrate=N/A speed=19.4x    frame=22338 fps=466 q=-0.0 size=N/A time=00:15:31.68 bitrate=N/A speed=19.4x    frame=22600 fps=466 q=-0.0 size=N/A time=00:15:42.60 bitrate=N/A speed=19.4x    frame=22861 fps=466 q=-0.0 size=N/A time=00:15:53.49 bitrate=N/A speed=19.5x    frame=23113 fps=467 q=-0.0 size=N/A time=00:16:04.00 bitrate=N/A speed=19.5x    frame=23378 fps=467 q=-0.0 size=N/A time=00:16:15.05 bitrate=N/A speed=19.5x    frame=23644 fps=468 q=-0.0 size=N/A time=00:16:26.15 bitrate=N/A speed=19.5x    frame=23900 fps=468 q=-0.0 size=N/A time=00:16:36.82 bitrate=N/A speed=19.5x    frame=24167 fps=468 q=-0.0 size=N/A time=00:16:47.96 bitrate=N/A speed=19.5x    frame=24409 fps=468 q=-0.0 size=N/A time=00:16:58.05 bitrate=N/A speed=19.5x    frame=24672 fps=469 q=-0.0 size=N/A time=00:17:09.02 bitrate=N/A speed=19.5x    frame=24930 fps=469 q=-0.0 size=N/A time=00:17:19.78 bitrate=N/A speed=19.6x    frame=25160 fps=469 q=-0.0 size=N/A time=00:17:29.38 bitrate=N/A speed=19.5x    frame=25382 fps=468 q=-0.0 size=N/A time=00:17:38.64 bitrate=N/A speed=19.5x    frame=25631 fps=469 q=-0.0 size=N/A time=00:17:49.02 bitrate=N/A speed=19.5x    frame=25872 fps=469 q=-0.0 size=N/A time=00:17:59.07 bitrate=N/A speed=19.5x    frame=26140 fps=469 q=-0.0 size=N/A time=00:18:10.25 bitrate=N/A speed=19.6x    frame=26390 fps=469 q=-0.0 size=N/A time=00:18:20.68 bitrate=N/A speed=19.6x    frame=26651 fps=469 q=-0.0 size=N/A time=00:18:31.56 bitrate=N/A speed=19.6x    frame=26894 fps=470 q=-0.0 size=N/A time=00:18:41.70 bitrate=N/A speed=19.6x    frame=27157 fps=470 q=-0.0 size=N/A time=00:18:52.67 bitrate=N/A speed=19.6x    frame=27433 fps=470 q=-0.0 size=N/A time=00:19:04.18 bitrate=N/A speed=19.6x    frame=27707 fps=471 q=-0.0 size=N/A time=00:19:15.61 bitrate=N/A speed=19.6x    frame=27972 fps=471 q=-0.0 size=N/A time=00:19:26.66 bitrate=N/A speed=19.7x    frame=28245 fps=472 q=-0.0 size=N/A time=00:19:38.05 bitrate=N/A speed=19.7x    frame=28521 fps=472 q=-0.0 size=N/A time=00:19:49.56 bitrate=N/A speed=19.7x    frame=28800 fps=473 q=-0.0 size=N/A time=00:20:01.20 bitrate=N/A speed=19.7x    frame=29061 fps=473 q=-0.0 size=N/A time=00:20:12.08 bitrate=N/A speed=19.7x    frame=29339 fps=474 q=-0.0 size=N/A time=00:20:23.68 bitrate=N/A speed=19.8x    frame=29602 fps=474 q=-0.0 size=N/A time=00:20:34.65 bitrate=N/A speed=19.8x    frame=29887 fps=475 q=-0.0 size=N/A time=00:20:46.53 bitrate=N/A speed=19.8x    frame=30140 fps=475 q=-0.0 size=N/A time=00:20:57.08 bitrate=N/A speed=19.8x    frame=30416 fps=475 q=-0.0 size=N/A time=00:21:08.60 bitrate=N/A speed=19.8x    frame=30667 fps=475 q=-0.0 size=N/A time=00:21:19.06 bitrate=N/A speed=19.8x    frame=30935 fps=476 q=-0.0 size=N/A time=00:21:30.24 bitrate=N/A speed=19.8x    frame=31176 fps=476 q=-0.0 size=N/A time=00:21:40.29 bitrate=N/A speed=19.8x    frame=31417 fps=476 q=-0.0 size=N/A time=00:21:50.35 bitrate=N/A speed=19.8x    frame=31668 fps=476 q=-0.0 size=N/A time=00:22:00.81 bitrate=N/A speed=19.8x    frame=31904 fps=476 q=-0.0 size=N/A time=00:22:10.66 bitrate=N/A speed=19.8x    frame=32144 fps=476 q=-0.0 size=N/A time=00:22:20.67 bitrate=N/A speed=19.8x    frame=32405 fps=476 q=-0.0 size=N/A time=00:22:31.55 bitrate=N/A speed=19.8x    frame=32664 fps=476 q=-0.0 size=N/A time=00:22:42.36 bitrate=N/A speed=19.9x    frame=32906 fps=476 q=-0.0 size=N/A time=00:22:52.45 bitrate=N/A speed=19.9x    frame=33148 fps=476 q=-0.0 size=N/A time=00:23:02.54 bitrate=N/A speed=19.9x    frame=33407 fps=476 q=-0.0 size=N/A time=00:23:13.35 bitrate=N/A speed=19.9x    frame=33649 fps=476 q=-0.0 size=N/A time=00:23:23.44 bitrate=N/A speed=19.9x    frame=33894 fps=476 q=-0.0 size=N/A time=00:23:33.66 bitrate=N/A speed=19.9x    frame=34146 fps=476 q=-0.0 size=N/A time=00:23:44.17 bitrate=N/A speed=19.9x    [Parsed_ssim_10 @ 000001e8b5ecc440] SSIM Y:0.994945 (22.963182) U:0.993941 (22.176052) V:0.994426 (22.537982) All:0.994691 (22.750210)
[out#0/null @ 000001e8b5964680] video:14697KiB audio:267508KiB subtitle:0KiB other streams:0KiB global headers:0KiB muxing overhead: unknown
frame=34204 fps=476 q=-0.0 Lsize=N/A time=00:23:46.59 bitrate=N/A speed=19.9x    
